<svg width="112" height="18" viewBox="0 0 112 18" fill="none" xmlns="http://www.w3.org/2000/svg">
<path d="M0.146484 17.4506V17.4028L1.763 15.8973C1.90777 15.7539 1.98015 15.5627 1.98015 15.3237V2.77728C1.98015 2.5383 1.90777 2.34711 1.763 2.20372L0.146484 0.698153V0.650358H8.20495C10.9394 0.650358 13.0143 1.3673 14.4297 2.80117C15.8452 4.21912 16.5529 6.17875 16.5529 8.68007C16.5529 11.4522 15.7809 13.611 14.2367 15.1564C12.7087 16.6859 10.5453 17.4506 7.74653 17.4506H0.146484ZM6.85383 16.9727H7.3605C8.88855 16.9727 9.97427 16.3195 10.6177 15.013C11.2771 13.6907 11.6069 11.6912 11.6069 9.01464C11.6069 6.36993 11.2852 4.39437 10.6418 3.08795C10.0145 1.78153 8.97702 1.12832 7.52939 1.12832H6.75732C6.58039 1.12832 6.46779 1.16018 6.41954 1.22391C6.37128 1.2717 6.34716 1.39119 6.34716 1.58238V16.4947C6.34716 16.7177 6.37128 16.8532 6.41954 16.901C6.48388 16.9488 6.62864 16.9727 6.85383 16.9727Z" fill="#30404D"/>
<path d="M26.4935 17.6896C24.1934 17.6896 22.5206 17.2355 21.4751 16.3274C20.4456 15.4034 19.9309 13.8739 19.9309 11.739V2.80117C19.9309 2.56219 19.8505 2.37101 19.6897 2.22762L18.242 0.698153V0.650358H26.0351V0.698153L24.5392 2.22762C24.3784 2.37101 24.2979 2.56219 24.2979 2.80117V11.4761C24.2979 13.3561 24.6035 14.7103 25.2148 15.5388C25.8421 16.3672 26.7669 16.7815 27.9894 16.7815C29.1475 16.7815 30.0482 16.3274 30.6916 15.4193C31.335 14.5112 31.6567 13.1649 31.6567 11.3805V4.66521C31.6567 4.37844 31.5522 4.11556 31.3431 3.87658L28.9786 0.698153V0.650358H34.8415V0.698153L32.477 3.87658C32.2679 4.11556 32.1634 4.37844 32.1634 4.66521V11.3327C32.1634 13.4039 31.721 14.9812 30.8364 16.0645C29.9517 17.1479 28.5041 17.6896 26.4935 17.6896Z" fill="#30404D"/>
<path d="M45.3332 15.1564C45.3332 15.4113 45.4217 15.6184 45.5986 15.7778L47.384 17.4028V17.4506H38.9395V17.4028L40.7249 15.7778C40.9019 15.6025 40.9903 15.3954 40.9903 15.1564V1.12832H39.6151C39.4221 1.12832 39.2853 1.15221 39.2049 1.20001C39.1406 1.23187 39.0682 1.33543 38.9878 1.51068L36.0201 7.10281H35.9719V0.650358H50.3517V7.10281H50.3034L47.3358 1.51068C47.2553 1.33543 47.1749 1.23187 47.0945 1.20001C47.0302 1.15221 46.9015 1.12832 46.7085 1.12832H45.3332V15.1564Z" fill="#30404D"/>
<path d="M66.0792 0.865439V6.74434H66.0309L62.3636 1.24781C62.2027 0.992895 61.9373 0.865439 61.5674 0.865439H61.2296C58.7847 0.865439 57.5623 3.60574 57.5623 9.08634C57.5623 14.5191 58.8008 17.2355 61.2779 17.2355H61.5433C61.9132 17.2355 62.1786 17.124 62.3394 16.901L66.0309 11.2611H66.0792V17.2594C64.5028 17.5462 62.7898 17.6896 60.9401 17.6896C58.1413 17.6896 56.0503 16.9328 54.667 15.4193C53.2837 13.8898 52.5921 11.7788 52.5921 9.08634C52.5921 6.40976 53.3079 4.29878 54.7394 2.75338C56.1709 1.19204 58.2057 0.411377 60.8436 0.411377C62.6451 0.411377 64.3903 0.562731 66.0792 0.865439Z" fill="#30404D"/>
<path d="M84.9421 2.77728V15.3237C84.9421 15.5627 85.0144 15.7539 85.1592 15.8973L86.7516 17.4028V17.4506H78.7414V17.4028L80.3338 15.8973C80.4946 15.7379 80.575 15.5468 80.575 15.3237V9.08634H74.9775V15.3237C74.9775 15.5627 75.058 15.7539 75.2188 15.8973L76.8112 17.4028V17.4506H68.7769V17.4028L70.3934 15.8973C70.5382 15.7539 70.6105 15.5627 70.6105 15.3237V2.77728C70.6105 2.5383 70.5382 2.34711 70.3934 2.20372L68.7769 0.698153V0.650358H76.8112V0.698153L75.2188 2.20372C75.058 2.34711 74.9775 2.5383 74.9775 2.77728V8.60838H80.575V2.77728C80.575 2.5383 80.4946 2.34711 80.3338 2.20372L78.7414 0.698153V0.650358H86.7516V0.698153L85.1592 2.20372C85.0144 2.34711 84.9421 2.5383 84.9421 2.77728Z" fill="#30404D"/>
<path d="M94.9861 15.3237C94.9861 15.5627 95.0665 15.7539 95.2274 15.8973L96.8198 17.4028V17.4506H88.7854V17.4028L90.4019 15.8973C90.5467 15.7539 90.6191 15.5627 90.6191 15.3237V2.77728C90.6191 2.5383 90.5467 2.34711 90.4019 2.20372L88.7854 0.698153V0.650358H96.8198V0.698153L95.2274 2.20372C95.0665 2.34711 94.9861 2.5383 94.9861 2.77728V15.3237Z" fill="#30404D"/>
<path d="M111.783 0.650358V6.43366H111.735L108.622 1.51068C108.462 1.25577 108.236 1.12832 107.947 1.12832H105.462C105.285 1.12832 105.172 1.16018 105.124 1.22391C105.076 1.2717 105.052 1.39916 105.052 1.60628V8.79956H106.692C106.934 8.78363 107.143 8.67211 107.32 8.46499L109.491 5.9796H109.539V12.0736H109.491L107.32 9.58819C107.127 9.38108 106.909 9.27752 106.668 9.27752H105.052V16.4947C105.052 16.7018 105.076 16.8372 105.124 16.901C105.172 16.9488 105.285 16.9727 105.462 16.9727H108.236C108.59 16.9727 108.832 16.8611 108.96 16.6381L111.952 11.5717H112V17.4506H98.851V17.4028L100.467 15.8973C100.612 15.7539 100.685 15.5627 100.685 15.3237V2.77728C100.685 2.5383 100.612 2.34711 100.467 2.20372L98.851 0.698153V0.650358H111.783Z" fill="#30404D"/>
</svg>
