<svg width="24" height="28" viewBox="0 0 24 28" fill="none" xmlns="http://www.w3.org/2000/svg">
<path fill-rule="evenodd" clip-rule="evenodd" d="M10.8111 8.95344L3.43061 0L0.285893 3.4306L9.24305 10.5721L7.57589 12.2931L7.21042 14.7828L0 20.7265L3.43059 23.8713L6.42822 20.1115L5.28882 27.8737H10.2918V24.729C10.2918 23.7816 11.0597 23.0137 12.0071 23.0137C12.9544 23.0137 13.7224 23.7816 13.7224 24.729V27.8737H18.8683L17.5762 20.0494L20.7265 23.8711L23.8712 20.4405L16.6961 14.7198L16.2953 12.2931L14.7812 10.678L23.8712 3.4306L20.7265 0L13.261 9.05649L12.0071 7.71893L10.8111 8.95344Z" fill="#30404D" fill-opacity="0.5"/>
</svg>
